<?xml version="1.0" standalone="no"?>
<!DOCTYPE svg PUBLIC "-//W3C//DTD SVG 20010904//EN"
 "http://www.w3.org/TR/2001/REC-SVG-20010904/DTD/svg10.dtd">
<svg version="1.0" xmlns="http://www.w3.org/2000/svg"
 width="387.000000pt" height="386.000000pt" viewBox="0 0 387.000000 386.000000"
 preserveAspectRatio="xMidYMid meet">

<g transform="translate(0.000000,386.000000) scale(0.100000,-0.100000)"
fill="#000000" stroke="none">
<path d="M1760 3839 c-760 -77 -1408 -599 -1646 -1326 -151 -462 -115 -958
106 -1419 l58 -122 -133 -473 c-75 -268 -129 -478 -124 -483 5 -6 206 42 501
118 l494 127 110 -50 c147 -66 296 -115 451 -148 119 -25 145 -27 363 -27 217
0 245 2 361 27 772 164 1375 774 1531 1548 19 98 23 145 23 334 0 191 -3 235
-23 334 -88 437 -326 841 -655 1118 -396 332 -912 493 -1417 442z m345 -319
c435 -50 816 -256 1082 -585 153 -189 274 -452 325 -708 29 -147 32 -414 5
-552 -126 -643 -623 -1147 -1270 -1287 -138 -30 -475 -33 -607 -5 -146 30
-310 88 -449 158 l-134 68 -279 -71 c-192 -49 -283 -67 -290 -60 -7 7 12 91
61 269 39 143 71 267 71 276 0 10 -11 35 -24 55 -173 275 -267 666 -237 989
21 226 64 380 161 578 213 436 592 738 1060 844 172 39 356 50 525 31z"/>
<path d="M1268 2860 c-115 -20 -222 -96 -276 -197 -29 -55 -55 -156 -44 -168
3 -3 351 -5 773 -5 l768 0 3 -102 3 -103 174 -3 c119 -2 178 1 187 9 19 16 21
548 2 567 -9 9 -194 12 -778 11 -421 -1 -786 -5 -812 -9z"/>
<path d="M952 2268 c-16 -16 -17 -585 -1 -708 19 -158 76 -282 183 -397 218
-235 560 -297 847 -153 77 39 128 82 329 276 l175 168 5 -255 5 -254 180 0
180 0 0 435 0 435 -27 57 c-35 76 -95 138 -170 179 l-63 34 -440 0 -440 0 0
-180 0 -180 248 -3 c137 -1 247 -6 245 -10 -2 -4 -82 -83 -178 -176 -215 -207
-238 -221 -370 -221 -84 0 -102 3 -152 28 -67 33 -121 90 -157 166 l-26 56 -5
355 -5 355 -175 3 c-128 2 -179 -1 -188 -10z"/>
</g>
</svg>
